<svg width="64" height="64" viewBox="0 0 64 64" fill="none" xmlns="http://www.w3.org/2000/svg">
<rect width="64" height="64" rx="16" fill="#334790"/>
<mask id="mask0_1_1147" style="mask-type:alpha" maskUnits="userSpaceOnUse" x="14" y="14" width="36" height="36">
<rect x="14" y="14" width="36" height="36" fill="#D9D9D9"/>
</mask>
<g mask="url(#mask0_1_1147)">
<path d="M32 34.475L33.8749 35.9259C34.1307 36.1317 34.4019 36.138 34.6884 35.9447C34.9749 35.7514 35.0653 35.4942 34.9595 35.173L34.2038 32.7846L36.3701 31.1087C36.6163 30.9029 36.6864 30.6481 36.5807 30.3443C36.4749 30.0404 36.2615 29.8885 35.9403 29.8885H33.448L32.6404 27.4193C32.5346 27.0982 32.3211 26.9376 32 26.9376C31.6788 26.9376 31.4654 27.0982 31.3596 27.4193L30.5519 29.8885H28.0221C27.701 29.8885 27.4914 30.0404 27.3933 30.3443C27.2952 30.6481 27.3692 30.9029 27.6154 31.1087L29.7211 32.7846L28.9654 35.225C28.8596 35.5461 28.9399 35.8033 29.2063 35.9966C29.4726 36.1899 29.7414 36.1836 30.0125 35.9779L32 34.475ZM20.4616 43.25C19.7135 43.25 19.0745 42.9851 18.5447 42.4552C18.0149 41.9254 17.75 41.2865 17.75 40.5384V36.4279C17.75 36.1818 17.8207 35.9635 17.962 35.7731C18.1034 35.5828 18.2923 35.4529 18.5288 35.3837C19.1865 35.0779 19.7212 34.6241 20.1327 34.0222C20.5442 33.4202 20.75 32.7462 20.75 32C20.75 31.2539 20.5442 30.5798 20.1327 29.9779C19.7212 29.3759 19.1865 28.9221 18.5288 28.6163C18.2923 28.5471 18.1034 28.4173 17.962 28.2269C17.8207 28.0365 17.75 27.8182 17.75 27.5721V23.4616C17.75 22.7135 18.0149 22.0746 18.5447 21.5448C19.0745 21.015 19.7135 20.7501 20.4616 20.7501H43.5384C44.2865 20.7501 44.9254 21.015 45.4552 21.5448C45.985 22.0746 46.2499 22.7135 46.2499 23.4616V27.5721C46.2499 27.8182 46.1793 28.0365 46.0379 28.2269C45.8966 28.4173 45.7076 28.5471 45.4711 28.6163C44.8134 28.9221 44.2788 29.3759 43.8672 29.9779C43.4557 30.5798 43.2499 31.2539 43.2499 32C43.2499 32.7462 43.4557 33.4202 43.8672 34.0222C44.2788 34.6241 44.8134 35.0779 45.4711 35.3837C45.7076 35.4529 45.8966 35.5828 46.0379 35.7731C46.1793 35.9635 46.2499 36.1818 46.2499 36.4279V40.5384C46.2499 41.2865 45.985 41.9254 45.4552 42.4552C44.9254 42.9851 44.2865 43.25 43.5384 43.25H20.4616ZM20.4616 41H43.5384C43.673 41 43.7836 40.9567 43.8701 40.8702C43.9567 40.7836 44 40.6731 44 40.5384V37.175C43.075 36.625 42.3437 35.8938 41.8062 34.9813C41.2687 34.0688 41 33.075 41 32C41 30.925 41.2687 29.9313 41.8062 29.0188C42.3437 28.1063 43.075 27.375 44 26.825V23.4616C44 23.327 43.9567 23.2164 43.8701 23.1298C43.7836 23.0433 43.673 23 43.5384 23H20.4616C20.3269 23 20.2163 23.0433 20.1298 23.1298C20.0432 23.2164 20 23.327 20 23.4616V26.825C20.925 27.375 21.6562 28.1063 22.1937 29.0188C22.7312 29.9313 23 30.925 23 32C23 33.075 22.7312 34.0688 22.1937 34.9813C21.6562 35.8938 20.925 36.625 20 37.175V40.5384C20 40.6731 20.0432 40.7836 20.1298 40.8702C20.2163 40.9567 20.3269 41 20.4616 41Z" fill="white"/>
</g>
</svg>
