<svg width="64" height="64" viewBox="0 0 64 64" fill="none" xmlns="http://www.w3.org/2000/svg">
<rect width="64" height="64" rx="16" fill="#334790"/>
<path d="M28.6666 30.6667V29.3333C28.6666 28.4493 29.0178 27.6014 29.6429 26.9763C30.2681 26.3512 31.1159 26 32 26C32.884 26 33.7319 26.3512 34.357 26.9763C34.9821 27.6014 35.3333 28.4493 35.3333 29.3333V29.3853C35.3334 29.7852 35.2436 30.1801 35.0705 30.5406C34.8974 30.9011 34.6455 31.218 34.3333 31.468L33 32.532C32.6878 32.7819 32.4358 33.0989 32.2627 33.4594C32.0896 33.8199 31.9998 34.2147 32 34.6147V36.6667M32 38.6667V41.3333M23.3333 22V44.6667M40.6666 44.6667V22H37.964M37.964 22H47.3333V22.3333L47.26 22.7466C46.0239 29.7503 46.0239 36.9163 47.26 43.92L47.3333 44.3333V44.6667H16.6666V44.3333L16.74 43.92C17.976 36.9163 17.976 29.7503 16.74 22.7466L16.6666 22.3333V22H26.036M37.964 22C37.801 20.5324 37.1012 19.1764 36.0009 18.1916C34.9007 17.2068 33.4759 16.6623 31.9993 16.6623C30.5227 16.6623 29.0979 17.2068 27.9977 18.1916C26.8974 19.1764 26.199 20.5324 26.036 22M37.964 22H26.036" stroke="white" stroke-width="2"/>
</svg>
